<?xml version="1.0" standalone="no"?><!DOCTYPE svg PUBLIC "-//W3C//DTD SVG 1.1//EN"
  "http://www.w3.org/Graphics/SVG/1.1/DTD/svg11.dtd">
<svg class="icon" style="width: 5em; height: 5em;vertical-align: middle;fill: currentColor;overflow: hidden;"
     viewBox="0 0 1024 1024" version="1.1" xmlns="http://www.w3.org/2000/svg">
  <path
    d="M707.230961 707.947787 314.498322 707.947787c-11.275811 0-19.890003 9.271154-19.890003 20.732184 0 11.471262 8.614192 20.261463 19.890003 20.261463L707.230961 748.941434c11.017938 0 20.3597-8.7902 20.3597-20.261463C727.591685 717.218942 718.248899 707.947787 707.230961 707.947787L707.230961 707.947787zM294.60832 438.308651 294.60832 438.308651c0 11.473309 8.614192 20.744463 19.890003 20.744463L707.230961 459.053114c11.017938 0 20.3597-9.271154 20.3597-20.744463 0-11.458983-9.342786-20.741393-20.3597-20.741393L314.498322 417.567257C303.223534 417.567257 294.60832 426.849668 294.60832 438.308651L294.60832 438.308651zM885.103068 323.867202 885.103068 323.867202 641.28911 75.472925c-6.235005-6.346545-15.108093-10.251481-23.982204-10.251481L216.925053 65.221444c-24.452925 0-47.470151 10.251481-63.777559 27.079752-16.544815 16.598027-26.593681 39.783075-26.593681 65.159022l0 709.576891c0 25.375947 10.048867 48.312332 26.593681 64.909335l0 0 0 0c16.778128 16.585747 39.324634 27.079752 63.777559 27.079752L804.567847 959.026196c24.689309 0 46.738487-10.001795 63.051011-26.109658l0.940418-0.970094c16.331967-16.597003 26.617218-39.533388 26.617218-64.909335L895.176494 348.274078C895.176494 339.483878 891.83233 330.705957 885.103068 323.867202L885.103068 323.867202zM637.197932 168.922271 637.197932 168.922271l156.098197 158.849868L673.887552 327.772138c-10.073426 0-19.418258-4.38589-26.126031-10.731412l-0.707105-1.461281c-5.765307-6.347568-9.856485-15.136745-9.856485-24.898063L637.197932 168.922271 637.197932 168.922271zM827.585073 867.037109 827.585073 867.037109c0 6.346545-2.164293 12.20395-6.729262 16.34834l0 0.249687c-4.308119 3.903913-10.072403 6.335289-16.287965 6.335289L216.925053 889.970424c-5.982248 0-11.979846-2.431376-16.053628-6.585999l0 0c-4.092201-4.14439-6.727215-10.000771-6.727215-16.34834L194.14421 157.460218c0-6.598278 2.636037-12.202926 6.727215-16.598027 4.073782-3.903913 10.07138-6.825452 16.053628-6.825452L596.693426 134.036739l0 156.644643c0 20.993127 8.143471 40.024575 21.579481 53.928237l0.967024 1.221828c14.378475 14.393825 33.558303 22.934339 54.647621 22.934339l153.697521 0L827.585073 867.037109 827.585073 867.037109zM707.230961 563.002604 707.230961 563.002604 314.498322 563.002604c-11.275811 0-19.890003 9.029654-19.890003 20.491707 0 11.472286 8.614192 20.50194 19.890003 20.50194L707.230961 603.996251c11.017938 0 20.3597-9.029654 20.3597-20.50194C727.591685 572.032258 718.248899 563.002604 707.230961 563.002604L707.230961 563.002604z"/>
</svg>
