<?xml version="1.0" encoding="iso-8859-1"?>
<!-- Generator: Adobe Illustrator 19.0.0, SVG Export Plug-In . SVG Version: 6.00 Build 0)  -->
<svg version="1.1" id="Layer_1" xmlns="http://www.w3.org/2000/svg" xmlns:xlink="http://www.w3.org/1999/xlink" x="0px" y="0px"
	 viewBox="0 0 512 512" style="enable-background:new 0 0 512 512;" xml:space="preserve">
<g>
	<g>
		<path d="M481.583,157.313H30.417H0v319.043h512V157.313H481.583z M170.409,390.934l-74.097-74.104l74.098-74.097l21.508,21.508
			l-52.59,52.59l52.591,52.594L170.409,390.934z M240.233,394.642l-28.102-11.64l59.636-143.975l28.102,11.64L240.233,394.642z
			 M341.59,390.934l-21.51-21.508l52.591-52.594l-52.59-52.59l21.508-21.508l74.098,74.097L341.59,390.934z"/>
	</g>
</g>
<g>
	<g>
		<path d="M0,35.644v91.252h30.417h451.166H512V35.644H0z M78.059,96.478H47.135V66.061h30.924V96.478z M129.261,96.478H98.337
			V66.061h30.924V96.478z M180.463,96.478h-30.924V66.061h30.924V96.478z"/>
	</g>
</g>
<g>
</g>
<g>
</g>
<g>
</g>
<g>
</g>
<g>
</g>
<g>
</g>
<g>
</g>
<g>
</g>
<g>
</g>
<g>
</g>
<g>
</g>
<g>
</g>
<g>
</g>
<g>
</g>
<g>
</g>
</svg>
