<?xml version="1.0" standalone="no"?><!DOCTYPE svg PUBLIC "-//W3C//DTD SVG 1.1//EN" "http://www.w3.org/Graphics/SVG/1.1/DTD/svg11.dtd"><svg class="icon" style="width: 5em; height: 5em;vertical-align: middle;fill: currentColor;overflow: hidden;" viewBox="0 0 1024 1024" version="1.1" xmlns="http://www.w3.org/2000/svg"><path d="M869.6 275.2L570.8 139c-32.4-14.8-85.4-14.8-117.8 0L154.4 275.2c-35.2 16-35.2 42.2 0 58.2l296 135c33.8 15.4 89.4 15.4 123.2 0l296-135c35.2-16 35.2-42.2 0-58.2zM450.4 750.4l-199.6-91c-8.4-3.8-18.2-3.8-26.6 0l-69.8 31.8c-35.2 16-35.2 42.2 0 58.2l296 135c33.8 15.4 89.4 15.4 123.2 0l296-135c35.2-16 35.2-42.2 0-58.2l-69.8-31.8c-8.4-3.8-18.2-3.8-26.6 0l-199.6 91c-33.8 15.4-89.4 15.4-123.2 0zM869.6 483.2l-63.4-28.8c-8.4-3.8-18-3.8-26.4 0l-216 97.8c-30.6 10.4-73.2 10.4-103.8 0l-216-97.8c-8.4-3.8-18-3.8-26.4 0l-63.4 28.8c-35.2 16-35.2 42.2 0 58.2l296 135c33.8 15.4 89.4 15.4 123.2 0l296-135c35.4-16 35.4-42.2 0.2-58.2z" /></svg>